<?xml version="1.0" encoding="iso-8859-1"?>
<!-- Generator: Adobe Illustrator 19.0.0, SVG Export Plug-In . SVG Version: 6.00 Build 0)  -->
<svg xmlns="http://www.w3.org/2000/svg" xmlns:xlink="http://www.w3.org/1999/xlink" version="1.1" id="Layer_1" x="0px" y="0px" viewBox="0 0 512 512" style="enable-background:new 0 0 512 512;" xml:space="preserve" width="512px" height="512px">
<g>
	<g>
		<path d="M497,240h-15v-15c0-57.891-48.109-105-106-105H181c0-58.658,0-45.938,0-105c0-8.291-6.709-15-15-15H76    c-8.291,0-15,6.709-15,15v60c0,8.291,6.709,15,15,15h75v30h-46C47.109,120,0,167.109,0,225v180c0,8.291,6.709,15,15,15h166v77    c0,8.291,6.709,15,15,15h45v-92h30v92h45c8.291,0,15-6.709,15-15v-77c206.673,0,130.612,0,166,0c8.291,0,15-6.709,15-15V255    C512,246.44,504.628,240,497,240z M136,271h60c8.291,0,15,6.709,15,15c0,8.291-6.709,15-15,15h-60c-8.291,0-15-6.709-15-15    C121,277.709,127.709,271,136,271z M226,361h-90c-8.291,0-15-6.709-15-15c0-8.291,6.709-15,15-15h90c8.291,0,15,6.709,15,15    C241,354.291,234.291,361,226,361z M301,226c0-41.353,33.647-75,75-75c41.353,0,76,33.647,76,75v15H301V226z M482,391    c-60.086,0-121.045,0-181,0V288.602l80.244,68.78c5.57,4.812,13.92,4.83,19.512,0L482,288.602V391z" fill="#FFDA44"/>
	</g>
</g>
<g>
</g>
<g>
</g>
<g>
</g>
<g>
</g>
<g>
</g>
<g>
</g>
<g>
</g>
<g>
</g>
<g>
</g>
<g>
</g>
<g>
</g>
<g>
</g>
<g>
</g>
<g>
</g>
<g>
</g>
</svg>
