<?xml version="1.0" encoding="iso-8859-1"?>
<!-- Generator: Adobe Illustrator 18.0.0, SVG Export Plug-In . SVG Version: 6.00 Build 0)  -->
<!DOCTYPE svg PUBLIC "-//W3C//DTD SVG 1.1//EN" "http://www.w3.org/Graphics/SVG/1.1/DTD/svg11.dtd">
<svg xmlns="http://www.w3.org/2000/svg" xmlns:xlink="http://www.w3.org/1999/xlink" version="1.1" id="Capa_1" x="0px" y="0px" viewBox="0 0 297 297" style="enable-background:new 0 0 297 297;" xml:space="preserve" width="1em" height="1em">
<g>
	<path d="M149.999,162.915v120.952c0,7.253,5.74,13.133,12.993,13.133c7.253,0,12.993-5.88,12.993-13.133V162.915h100.813   c7.253,0,13.128-6.401,13.128-13.654V74.254c0-19.599-7.78-38.348-21.912-52.364C253.934,7.926,235.386,0,215.783,0H80.675   C40.091,0,7.074,33.626,7.074,74.026v75.236c0,7.253,5.88,13.654,13.133,13.654H149.999z M33.06,135.929V74.026   c0-25.918,21.376-47.003,47.476-47.003c26.1,0,47.474,21.188,47.474,47.231v61.675H33.06z M263.94,135.929H154.997V74.254   c0-18.05-7.285-35.274-18.135-48.267h78.922c25.955,0,48.156,22.51,48.156,48.267V135.929z" fill="#FFDA44"/>
	<path d="M80.036,58.311c-7.253,0-12.993,5.88-12.993,13.133v1.052c0,7.253,5.74,13.133,12.993,13.133   c7.253,0,12.993-5.88,12.993-13.133v-1.052C93.029,64.19,87.289,58.311,80.036,58.311z" fill="#FFDA44"/>
</g>

</svg>
